<svg width="92" height="92" viewBox="0 0 92 92" fill="none" xmlns="http://www.w3.org/2000/svg">
<rect width="92" height="92" rx="24" fill="white"/>
<path d="M56.0057 70H37.0057V76H56.0057V70Z" fill="black"/>
<path d="M56.0057 70H37.0057V76H56.0057V70Z" fill="url(#paint0_linear_22728_11394)"/>
<path d="M29.1727 16.4517L15.7377 29.8867L19.2732 33.4223L32.7083 19.9872L29.1727 16.4517Z" fill="black"/>
<path d="M29.1727 16.4517L15.7377 29.8867L19.2732 33.4223L32.7083 19.9872L29.1727 16.4517Z" fill="url(#paint1_linear_22728_11394)"/>
<path d="M63.1127 16.3199L59.5771 19.8555L73.0122 33.2905L76.5477 29.755L63.1127 16.3199Z" fill="black"/>
<path d="M63.1127 16.3199L59.5771 19.8555L73.0122 33.2905L76.5477 29.755L63.1127 16.3199Z" fill="url(#paint2_linear_22728_11394)"/>
<path d="M58.5564 23.7084L55.8651 23.5944C55.089 23.4848 54.2981 23.5571 53.5548 23.8056C52.8115 24.054 52.1361 24.4718 51.5819 25.026L46.0775 30.5305L40.3239 24.7769C39.8244 24.2888 39.2011 23.9463 38.5214 23.7861C37.8416 23.626 37.131 23.6543 36.4661 23.868C35.8388 24.0587 35.1715 24.0755 34.5355 23.9164C33.8995 23.7573 33.3186 23.4284 32.8551 22.9648L32.0012 22.1109L21.3945 32.7175L23.1225 34.4455L23.0085 37.1368C22.8989 37.9128 22.9712 38.7037 23.2197 39.447C23.4681 40.1903 23.8859 40.8657 24.4401 41.4199L34.0525 51.0324C34.181 49.7705 34.7856 48.6051 35.7432 47.7734L32.7482 44.7785L33.4553 44.0714L36.5836 47.1996C37.027 46.9472 37.5068 46.7649 38.0059 46.6591V42.9651L36.2838 41.243L36.9908 40.5358L38.0059 41.5509V36.201C37.9948 35.3168 38.3086 34.4592 38.8879 33.791C39.4672 33.1228 40.2716 32.6904 41.1485 32.576C41.4792 32.544 41.8128 32.559 42.1393 32.6208L40.9098 31.3914L41.6169 30.6843L43.4131 32.4804C43.7312 31.864 44.2233 31.3547 44.8283 31.0154C45.4333 30.6762 46.1246 30.5221 46.8165 30.5721C47.6513 30.6697 48.4258 31.0562 49.0057 31.6647C49.5855 32.2733 49.9342 33.0655 49.9913 33.9041C50.5596 33.634 51.1894 33.5194 51.8165 33.5721C52.7075 33.6788 53.5273 34.1126 54.1166 34.7895C54.7059 35.4663 55.0229 36.3379 55.0059 37.2352V40.6591C55.916 40.8491 56.7551 41.289 57.4292 41.9293C58.1032 42.5696 58.5855 43.3851 58.822 44.2842L61.6105 41.4957L62.3176 42.2029L59.0023 45.5181C59.0024 45.5319 59.0059 45.5447 59.0059 45.5585V48.8785C59.9043 48.7845 60.7437 48.3864 61.3848 47.7501L68.225 40.9099C68.7131 40.4104 69.0556 39.7871 69.2158 39.1073C69.3759 38.4276 69.3476 37.7169 69.1339 37.0521C68.9431 36.4248 68.9264 35.7575 69.0855 35.1215C69.2445 34.4854 69.5735 33.9046 70.0371 33.441L70.8909 32.5871L60.2844 21.9805L58.5564 23.7084Z" fill="black"/>
<path d="M58.5564 23.7084L55.8651 23.5944C55.089 23.4848 54.2981 23.5571 53.5548 23.8056C52.8115 24.054 52.1361 24.4718 51.5819 25.026L46.0775 30.5305L40.3239 24.7769C39.8244 24.2888 39.2011 23.9463 38.5214 23.7861C37.8416 23.626 37.131 23.6543 36.4661 23.868C35.8388 24.0587 35.1715 24.0755 34.5355 23.9164C33.8995 23.7573 33.3186 23.4284 32.8551 22.9648L32.0012 22.1109L21.3945 32.7175L23.1225 34.4455L23.0085 37.1368C22.8989 37.9128 22.9712 38.7037 23.2197 39.447C23.4681 40.1903 23.8859 40.8657 24.4401 41.4199L34.0525 51.0324C34.181 49.7705 34.7856 48.6051 35.7432 47.7734L32.7482 44.7785L33.4553 44.0714L36.5836 47.1996C37.027 46.9472 37.5068 46.7649 38.0059 46.6591V42.9651L36.2838 41.243L36.9908 40.5358L38.0059 41.5509V36.201C37.9948 35.3168 38.3086 34.4592 38.8879 33.791C39.4672 33.1228 40.2716 32.6904 41.1485 32.576C41.4792 32.544 41.8128 32.559 42.1393 32.6208L40.9098 31.3914L41.6169 30.6843L43.4131 32.4804C43.7312 31.864 44.2233 31.3547 44.8283 31.0154C45.4333 30.6762 46.1246 30.5221 46.8165 30.5721C47.6513 30.6697 48.4258 31.0562 49.0057 31.6647C49.5855 32.2733 49.9342 33.0655 49.9913 33.9041C50.5596 33.634 51.1894 33.5194 51.8165 33.5721C52.7075 33.6788 53.5273 34.1126 54.1166 34.7895C54.7059 35.4663 55.0229 36.3379 55.0059 37.2352V40.6591C55.916 40.8491 56.7551 41.289 57.4292 41.9293C58.1032 42.5696 58.5855 43.3851 58.822 44.2842L61.6105 41.4957L62.3176 42.2029L59.0023 45.5181C59.0024 45.5319 59.0059 45.5447 59.0059 45.5585V48.8785C59.9043 48.7845 60.7437 48.3864 61.3848 47.7501L68.225 40.9099C68.7131 40.4104 69.0556 39.7871 69.2158 39.1073C69.3759 38.4276 69.3476 37.7169 69.1339 37.0521C68.9431 36.4248 68.9264 35.7575 69.0855 35.1215C69.2445 34.4854 69.5735 33.9046 70.0371 33.441L70.8909 32.5871L60.2844 21.9805L58.5564 23.7084Z" fill="url(#paint3_linear_22728_11394)"/>
<path d="M43.8804 35.6901C43.8044 35.0405 43.476 34.4468 42.966 34.0373C42.4559 33.6278 41.8053 33.4353 41.1546 33.5015C40.5234 33.5886 39.9463 33.9046 39.5329 34.3894C39.1194 34.8742 38.8986 35.4941 38.9124 36.1311V47.4885C37.8515 47.4885 36.8341 47.9099 36.0839 48.66C35.3338 49.4102 34.9124 50.4276 34.9124 51.4885V61.1619C34.9205 61.8603 35.1189 62.5432 35.4864 63.1371C35.8538 63.7311 36.3763 64.2135 36.9976 64.5325C37.576 64.8412 38.0597 65.3012 38.3969 65.8634C38.7342 66.4256 38.9123 67.0689 38.9124 67.7245V68.9321H53.9124V66.4885L55.896 64.6661C56.5222 64.1948 57.0303 63.5844 57.3803 62.8831C57.7302 62.1818 57.9123 61.4088 57.9124 60.6251V45.4885C57.9124 44.4276 57.4909 43.4102 56.7408 42.66C55.9906 41.9099 54.9732 41.4885 53.9124 41.4885V37.1659C53.9293 36.5187 53.7062 35.888 53.286 35.3955C52.8657 34.903 52.2781 34.5834 51.6362 34.4983C51.0063 34.4426 50.3787 34.6285 49.8807 35.0183C49.3826 35.408 49.0513 35.9725 48.9539 36.5974H49.4124V52.0407H48.4124V36.5974H48.9124V34.1659C48.9293 33.5187 48.7062 32.888 48.286 32.3955C47.8657 31.903 47.2781 31.5834 46.6362 31.4983C46.2904 31.4673 45.942 31.5086 45.613 31.6196C45.2841 31.7306 44.9819 31.909 44.7256 32.1432C44.4694 32.3775 44.2647 32.6625 44.1247 32.9802C43.9847 33.2979 43.9124 33.6413 43.9124 33.9885V35.6901H44.4124V51.1335H43.4124V35.6901H43.8804ZM39.3115 56.0407H38.3115V48.0407H39.3115V56.0407ZM53.4124 41.799H54.4124V52.2423H53.4124V41.799Z" fill="black"/>
<path d="M43.8804 35.6901C43.8044 35.0405 43.476 34.4468 42.966 34.0373C42.4559 33.6278 41.8053 33.4353 41.1546 33.5015C40.5234 33.5886 39.9463 33.9046 39.5329 34.3894C39.1194 34.8742 38.8986 35.4941 38.9124 36.1311V47.4885C37.8515 47.4885 36.8341 47.9099 36.0839 48.66C35.3338 49.4102 34.9124 50.4276 34.9124 51.4885V61.1619C34.9205 61.8603 35.1189 62.5432 35.4864 63.1371C35.8538 63.7311 36.3763 64.2135 36.9976 64.5325C37.576 64.8412 38.0597 65.3012 38.3969 65.8634C38.7342 66.4256 38.9123 67.0689 38.9124 67.7245V68.9321H53.9124V66.4885L55.896 64.6661C56.5222 64.1948 57.0303 63.5844 57.3803 62.8831C57.7302 62.1818 57.9123 61.4088 57.9124 60.6251V45.4885C57.9124 44.4276 57.4909 43.4102 56.7408 42.66C55.9906 41.9099 54.9732 41.4885 53.9124 41.4885V37.1659C53.9293 36.5187 53.7062 35.888 53.286 35.3955C52.8657 34.903 52.2781 34.5834 51.6362 34.4983C51.0063 34.4426 50.3787 34.6285 49.8807 35.0183C49.3826 35.408 49.0513 35.9725 48.9539 36.5974H49.4124V52.0407H48.4124V36.5974H48.9124V34.1659C48.9293 33.5187 48.7062 32.888 48.286 32.3955C47.8657 31.903 47.2781 31.5834 46.6362 31.4983C46.2904 31.4673 45.942 31.5086 45.613 31.6196C45.2841 31.7306 44.9819 31.909 44.7256 32.1432C44.4694 32.3775 44.2647 32.6625 44.1247 32.9802C43.9847 33.2979 43.9124 33.6413 43.9124 33.9885V35.6901H44.4124V51.1335H43.4124V35.6901H43.8804ZM39.3115 56.0407H38.3115V48.0407H39.3115V56.0407ZM53.4124 41.799H54.4124V52.2423H53.4124V41.799Z" fill="url(#paint4_linear_22728_11394)"/>
<defs>
<linearGradient id="paint0_linear_22728_11394" x1="46.5057" y1="70" x2="46.5057" y2="76" gradientUnits="userSpaceOnUse">
<stop stop-color="#EF8080"/>
<stop offset="1" stop-color="#F0145A"/>
</linearGradient>
<linearGradient id="paint1_linear_22728_11394" x1="22.4552" y1="23.1692" x2="25.9907" y2="26.7047" gradientUnits="userSpaceOnUse">
<stop stop-color="#EF8080"/>
<stop offset="1" stop-color="#F0145A"/>
</linearGradient>
<linearGradient id="paint2_linear_22728_11394" x1="61.3449" y1="18.0877" x2="74.78" y2="31.5228" gradientUnits="userSpaceOnUse">
<stop stop-color="#EF8080"/>
<stop offset="1" stop-color="#F0145A"/>
</linearGradient>
<linearGradient id="paint3_linear_22728_11394" x1="46.1427" y1="21.9805" x2="46.1427" y2="51.0324" gradientUnits="userSpaceOnUse">
<stop stop-color="#EF8080"/>
<stop offset="1" stop-color="#F0145A"/>
</linearGradient>
<linearGradient id="paint4_linear_22728_11394" x1="46.4124" y1="31.4883" x2="46.4124" y2="68.9321" gradientUnits="userSpaceOnUse">
<stop stop-color="#EF8080"/>
<stop offset="1" stop-color="#F0145A"/>
</linearGradient>
</defs>
</svg>
