<svg width="93" height="92" viewBox="0 0 93 92" fill="none" xmlns="http://www.w3.org/2000/svg">
<rect x="0.666748" width="92" height="92" rx="24" fill="white"/>
<path d="M55.0187 34.389C55.7507 35.121 56.9367 35.123 57.6687 34.389L60.2767 31.781C61.0077 31.049 61.0057 29.863 60.2767 29.13L53.6937 22.549C52.9637 21.817 51.7777 21.817 51.0457 22.549L48.4367 25.157C47.7067 25.889 47.7067 27.075 48.4367 27.805L55.0187 34.389Z" fill="url(#paint0_linear_22728_11406)"/>
<path d="M39.4328 50.2652C40.1638 50.9942 41.3498 50.9942 42.0808 50.2652L44.6898 47.6553C45.4218 46.9253 45.4218 45.7383 44.6898 45.0063L38.1068 38.4233C37.3758 37.6933 36.1898 37.6913 35.4578 38.4233L32.8498 41.0312C32.1178 41.7632 32.1198 42.9492 32.8498 43.6812L39.4328 50.2652Z" fill="url(#paint1_linear_22728_11406)"/>
<path d="M69.3149 50.8912L66.6679 48.2412C65.9339 47.5112 64.7509 47.5112 64.0199 48.2412L62.8589 49.4012L51.6539 38.1942L54.0809 35.7662L47.3479 29.0352L44.9199 31.4632L41.8279 34.5532L39.4539 36.9272L46.1859 43.6602L48.5629 41.2872L59.7659 52.4922L58.7179 53.5412C57.9859 54.2702 57.9839 55.4572 58.7179 56.1892L61.3649 58.8372C62.0989 59.5712 63.2839 59.5712 64.0149 58.8372L69.3139 53.5402C70.0469 52.8072 70.0469 51.6232 69.3149 50.8912Z" fill="url(#paint2_linear_22728_11406)"/>
<path d="M49.7437 58.9425C49.7437 57.7435 48.7717 56.7695 47.5707 56.7695H30.6027C29.4027 56.7695 28.4297 57.7435 28.4297 58.9425V62.4695H23.6667V69.8585H54.2247V62.4695H49.7437V58.9425Z" fill="url(#paint3_linear_22728_11406)"/>
<defs>
<linearGradient id="paint0_linear_22728_11406" x1="54.3567" y1="22" x2="54.3567" y2="34.9388" gradientUnits="userSpaceOnUse">
<stop stop-color="#EF8080"/>
<stop offset="1" stop-color="#F0145A"/>
</linearGradient>
<linearGradient id="paint1_linear_22728_11406" x1="38.7701" y1="37.875" x2="38.7701" y2="50.812" gradientUnits="userSpaceOnUse">
<stop stop-color="#EF8080"/>
<stop offset="1" stop-color="#F0145A"/>
</linearGradient>
<linearGradient id="paint2_linear_22728_11406" x1="54.6588" y1="29.0352" x2="54.6588" y2="59.3877" gradientUnits="userSpaceOnUse">
<stop stop-color="#EF8080"/>
<stop offset="1" stop-color="#F0145A"/>
</linearGradient>
<linearGradient id="paint3_linear_22728_11406" x1="38.9457" y1="56.7695" x2="38.9457" y2="69.8585" gradientUnits="userSpaceOnUse">
<stop stop-color="#EF8080"/>
<stop offset="1" stop-color="#F0145A"/>
</linearGradient>
</defs>
</svg>
