<svg width="93" height="92" viewBox="0 0 93 92" fill="none" xmlns="http://www.w3.org/2000/svg">
<rect x="0.666748" width="92" height="92" rx="24" fill="white"/>
<g clip-path="url(#clip0_22728_11387)">
<path d="M75.1932 51.7273C74.5057 51.4426 73.782 51.2982 73.0421 51.2982C71.4104 51.2982 69.9031 51.9946 68.8565 53.1615L67.6365 52.6562L64.1564 51.2147C64.6502 49.5616 64.9167 47.8113 64.9167 45.9998C64.9167 44.1883 64.6501 42.4381 64.1564 40.7849L67.6365 39.3435L68.8565 38.8381C69.9031 40.0051 71.4104 40.7014 73.0421 40.7014C73.782 40.7014 74.5057 40.5571 75.1932 40.2722C78.0586 39.0852 79.4243 35.7883 78.2373 32.9227C77.3633 30.8128 75.3229 29.4493 73.0391 29.4493C72.2992 29.4493 71.5755 29.5937 70.888 29.8786C68.6297 30.814 67.3042 33.0598 67.4242 35.3722L66.1971 35.8805L62.7181 37.3215C61.028 34.208 58.4585 31.6383 55.345 29.9483L56.786 26.4694L57.2938 25.2436C57.3921 25.2487 57.4908 25.2517 57.5898 25.2517C59.8736 25.2517 61.914 23.8884 62.7881 21.7784C63.975 18.9129 62.6094 15.6159 59.7439 14.4289C59.0563 14.1444 58.3326 14 57.5928 14C55.3089 14 53.2685 15.3634 52.3944 17.4734C51.459 19.7316 52.1098 22.257 53.8298 23.8072L53.3233 25.0301L51.8818 28.5102C50.2286 28.0165 48.4784 27.7498 46.6669 27.7498C44.8554 27.7498 43.1052 28.0165 41.452 28.5102L40.0105 25.0301L39.504 23.8072C41.224 22.257 41.8748 19.7316 40.9394 17.4732C40.0653 15.3634 38.0247 14 35.7409 14C35.0011 14 34.2773 14.1444 33.5898 14.4292C30.7244 15.6162 29.3587 18.9131 30.5457 21.7787C31.4197 23.8886 33.4602 25.2521 35.7439 25.2521C35.8429 25.2521 35.9416 25.2491 36.0399 25.244L36.5477 26.4697L37.9887 29.9487C34.8752 31.6388 32.3056 34.2083 30.6156 37.3218L27.1366 35.8808L25.9094 35.3726C26.0294 33.0602 24.7039 30.8143 22.4457 29.8788C21.7582 29.5941 21.0345 29.4497 20.2946 29.4497C18.0107 29.4497 15.9703 30.8131 15.0962 32.9231C13.9093 35.7886 15.275 39.0856 18.1405 40.2726C18.828 40.5573 19.5517 40.7017 20.2916 40.7017C21.9233 40.7017 23.4306 40.0053 24.4772 38.8383L25.6972 39.3437L29.1773 40.7852C28.6834 42.4383 28.4169 44.1886 28.4169 46.0001C28.4169 47.8116 28.6836 49.5618 29.1773 51.2149L25.6971 52.6562L24.4771 53.1615C23.4304 51.9946 21.9232 51.2982 20.2915 51.2982C19.5516 51.2982 18.8278 51.4426 18.1403 51.7274C15.275 52.9144 13.9092 56.2113 15.0962 59.0769C15.9702 61.1868 18.0107 62.5503 20.2945 62.5503C21.0343 62.5503 21.7581 62.4059 22.4456 62.121C24.7038 61.1857 26.0293 58.9398 25.9093 56.6274L27.1364 56.1192L30.6154 54.6782C32.3056 57.7917 34.8751 60.3613 37.9885 62.0513L36.5476 65.5303L36.0398 66.756C35.9414 66.7509 35.8428 66.7479 35.7438 66.7479C33.4599 66.7479 31.4196 68.1113 30.5454 70.2213C29.3586 73.0868 30.7242 76.3838 33.5897 77.5708C34.2772 77.8555 35.0009 77.9999 35.7408 77.9999C38.0247 77.9999 40.065 76.6365 40.9392 74.5265C41.8745 72.2683 41.2238 69.7429 39.5038 68.1926L40.0103 66.9698L41.4518 63.4897C43.1049 63.9834 44.8552 64.25 46.6667 64.25C48.4781 64.25 50.2284 63.9834 51.8815 63.4897L53.323 66.9698L53.8295 68.1926C52.1095 69.7429 51.4588 72.2683 52.3941 74.5266C53.2681 76.6365 55.3086 78 57.5924 78C58.3323 78 59.056 77.8556 59.7435 77.5708C62.6089 76.3838 63.9746 73.0869 62.7876 70.2213C61.9136 68.1114 59.8731 66.7479 57.5894 66.7479C57.4904 66.7479 57.3918 66.7509 57.2934 66.756L56.7856 65.5303L55.3446 62.0513C58.4581 60.3612 61.0278 57.7917 62.7178 54.6782L66.1967 56.1192L67.4239 56.6274C67.3039 58.9398 68.6294 61.1857 70.8876 62.1212C71.5751 62.4059 72.2989 62.5503 73.0387 62.5503C75.3226 62.5503 77.363 61.1869 78.2371 59.0769C79.4243 56.2113 78.0588 52.9143 75.1932 51.7273ZM46.6669 60.4998C38.6717 60.4998 32.1669 53.995 32.1669 45.9998C32.1669 38.0046 38.6717 31.4998 46.6669 31.4998C54.6621 31.4998 61.1669 38.0046 61.1669 45.9998C61.1669 53.995 54.662 60.4998 46.6669 60.4998Z" fill="black"/>
<path d="M75.1932 51.7273C74.5057 51.4426 73.782 51.2982 73.0421 51.2982C71.4104 51.2982 69.9031 51.9946 68.8565 53.1615L67.6365 52.6562L64.1564 51.2147C64.6502 49.5616 64.9167 47.8113 64.9167 45.9998C64.9167 44.1883 64.6501 42.4381 64.1564 40.7849L67.6365 39.3435L68.8565 38.8381C69.9031 40.0051 71.4104 40.7014 73.0421 40.7014C73.782 40.7014 74.5057 40.5571 75.1932 40.2722C78.0586 39.0852 79.4243 35.7883 78.2373 32.9227C77.3633 30.8128 75.3229 29.4493 73.0391 29.4493C72.2992 29.4493 71.5755 29.5937 70.888 29.8786C68.6297 30.814 67.3042 33.0598 67.4242 35.3722L66.1971 35.8805L62.7181 37.3215C61.028 34.208 58.4585 31.6383 55.345 29.9483L56.786 26.4694L57.2938 25.2436C57.3921 25.2487 57.4908 25.2517 57.5898 25.2517C59.8736 25.2517 61.914 23.8884 62.7881 21.7784C63.975 18.9129 62.6094 15.6159 59.7439 14.4289C59.0563 14.1444 58.3326 14 57.5928 14C55.3089 14 53.2685 15.3634 52.3944 17.4734C51.459 19.7316 52.1098 22.257 53.8298 23.8072L53.3233 25.0301L51.8818 28.5102C50.2286 28.0165 48.4784 27.7498 46.6669 27.7498C44.8554 27.7498 43.1052 28.0165 41.452 28.5102L40.0105 25.0301L39.504 23.8072C41.224 22.257 41.8748 19.7316 40.9394 17.4732C40.0653 15.3634 38.0247 14 35.7409 14C35.0011 14 34.2773 14.1444 33.5898 14.4292C30.7244 15.6162 29.3587 18.9131 30.5457 21.7787C31.4197 23.8886 33.4602 25.2521 35.7439 25.2521C35.8429 25.2521 35.9416 25.2491 36.0399 25.244L36.5477 26.4697L37.9887 29.9487C34.8752 31.6388 32.3056 34.2083 30.6156 37.3218L27.1366 35.8808L25.9094 35.3726C26.0294 33.0602 24.7039 30.8143 22.4457 29.8788C21.7582 29.5941 21.0345 29.4497 20.2946 29.4497C18.0107 29.4497 15.9703 30.8131 15.0962 32.9231C13.9093 35.7886 15.275 39.0856 18.1405 40.2726C18.828 40.5573 19.5517 40.7017 20.2916 40.7017C21.9233 40.7017 23.4306 40.0053 24.4772 38.8383L25.6972 39.3437L29.1773 40.7852C28.6834 42.4383 28.4169 44.1886 28.4169 46.0001C28.4169 47.8116 28.6836 49.5618 29.1773 51.2149L25.6971 52.6562L24.4771 53.1615C23.4304 51.9946 21.9232 51.2982 20.2915 51.2982C19.5516 51.2982 18.8278 51.4426 18.1403 51.7274C15.275 52.9144 13.9092 56.2113 15.0962 59.0769C15.9702 61.1868 18.0107 62.5503 20.2945 62.5503C21.0343 62.5503 21.7581 62.4059 22.4456 62.121C24.7038 61.1857 26.0293 58.9398 25.9093 56.6274L27.1364 56.1192L30.6154 54.6782C32.3056 57.7917 34.8751 60.3613 37.9885 62.0513L36.5476 65.5303L36.0398 66.756C35.9414 66.7509 35.8428 66.7479 35.7438 66.7479C33.4599 66.7479 31.4196 68.1113 30.5454 70.2213C29.3586 73.0868 30.7242 76.3838 33.5897 77.5708C34.2772 77.8555 35.0009 77.9999 35.7408 77.9999C38.0247 77.9999 40.065 76.6365 40.9392 74.5265C41.8745 72.2683 41.2238 69.7429 39.5038 68.1926L40.0103 66.9698L41.4518 63.4897C43.1049 63.9834 44.8552 64.25 46.6667 64.25C48.4781 64.25 50.2284 63.9834 51.8815 63.4897L53.323 66.9698L53.8295 68.1926C52.1095 69.7429 51.4588 72.2683 52.3941 74.5266C53.2681 76.6365 55.3086 78 57.5924 78C58.3323 78 59.056 77.8556 59.7435 77.5708C62.6089 76.3838 63.9746 73.0869 62.7876 70.2213C61.9136 68.1114 59.8731 66.7479 57.5894 66.7479C57.4904 66.7479 57.3918 66.7509 57.2934 66.756L56.7856 65.5303L55.3446 62.0513C58.4581 60.3612 61.0278 57.7917 62.7178 54.6782L66.1967 56.1192L67.4239 56.6274C67.3039 58.9398 68.6294 61.1857 70.8876 62.1212C71.5751 62.4059 72.2989 62.5503 73.0387 62.5503C75.3226 62.5503 77.363 61.1869 78.2371 59.0769C79.4243 56.2113 78.0588 52.9143 75.1932 51.7273ZM46.6669 60.4998C38.6717 60.4998 32.1669 53.995 32.1669 45.9998C32.1669 38.0046 38.6717 31.4998 46.6669 31.4998C54.6621 31.4998 61.1669 38.0046 61.1669 45.9998C61.1669 53.995 54.662 60.4998 46.6669 60.4998Z" fill="url(#paint0_linear_22728_11387)"/>
<path d="M46.6667 35.25C40.7392 35.25 35.9167 40.0725 35.9167 46C35.9167 51.9275 40.7392 56.75 46.6667 56.75C52.5942 56.75 57.4167 51.9275 57.4167 46C57.4167 40.0725 52.5942 35.25 46.6667 35.25ZM48.5417 50.125H44.7917V41.875H48.5417V50.125Z" fill="black"/>
<path d="M46.6667 35.25C40.7392 35.25 35.9167 40.0725 35.9167 46C35.9167 51.9275 40.7392 56.75 46.6667 56.75C52.5942 56.75 57.4167 51.9275 57.4167 46C57.4167 40.0725 52.5942 35.25 46.6667 35.25ZM48.5417 50.125H44.7917V41.875H48.5417V50.125Z" fill="url(#paint1_linear_22728_11387)"/>
</g>
<defs>
<linearGradient id="paint0_linear_22728_11387" x1="46.6668" y1="14" x2="46.6668" y2="78" gradientUnits="userSpaceOnUse">
<stop stop-color="#EF8080"/>
<stop offset="1" stop-color="#F0145A"/>
</linearGradient>
<linearGradient id="paint1_linear_22728_11387" x1="46.6667" y1="35.25" x2="46.6667" y2="56.75" gradientUnits="userSpaceOnUse">
<stop stop-color="#EF8080"/>
<stop offset="1" stop-color="#F0145A"/>
</linearGradient>
<clipPath id="clip0_22728_11387">
<rect width="64" height="64" fill="white" transform="translate(14.6667 14)"/>
</clipPath>
</defs>
</svg>
