<svg width="93" height="92" viewBox="0 0 93 92" fill="none" xmlns="http://www.w3.org/2000/svg">
<rect x="0.333496" width="92" height="92" rx="24" fill="white"/>
<path fill-rule="evenodd" clip-rule="evenodd" d="M67.7847 49.0781V66.3733C67.7847 69.4666 65.3604 72.0017 62.3966 72.0017H30.3036C27.3398 72.0017 24.9155 69.4666 24.9155 66.3733V49.0781H41.5816V56.5889L46.3501 59.7224L51.1186 56.5889V49.0781H67.7847Z" fill="url(#paint0_linear_22728_11381)"/>
<path fill-rule="evenodd" clip-rule="evenodd" d="M43.252 49.0781V55.6866L46.35 57.7222L49.4481 55.6866V49.0781H43.252Z" fill="url(#paint1_linear_22728_11381)"/>
<path fill-rule="evenodd" clip-rule="evenodd" d="M26.4069 29.1445H66.2934C68.1758 29.1445 69.7143 30.8526 69.7143 32.94V43.1931C69.7143 45.2805 68.1758 46.9886 66.2934 46.9886H50.6475H42.0529H26.4069C24.5245 46.9886 22.9861 45.2805 22.9861 43.1931V32.94C22.9861 30.8526 24.5245 29.1445 26.4069 29.1445Z" fill="url(#paint2_linear_22728_11381)"/>
<path fill-rule="evenodd" clip-rule="evenodd" d="M38.0455 19.9531H54.655C56.1982 19.9531 57.461 21.2159 57.461 22.7591V27.1365H53.9035V24.5496C53.9035 23.8522 53.3333 23.2797 52.6359 23.2797H40.0645C39.3672 23.2797 38.797 23.8522 38.797 24.5496V27.1365H35.2395V22.7591C35.2395 21.2159 36.5023 19.9531 38.0455 19.9531Z" fill="url(#paint3_linear_22728_11381)"/>
<defs>
<linearGradient id="paint0_linear_22728_11381" x1="46.3501" y1="49.0781" x2="46.3501" y2="72.0017" gradientUnits="userSpaceOnUse">
<stop stop-color="#EF8080"/>
<stop offset="1" stop-color="#F0145A"/>
</linearGradient>
<linearGradient id="paint1_linear_22728_11381" x1="46.35" y1="49.0781" x2="46.35" y2="57.7222" gradientUnits="userSpaceOnUse">
<stop stop-color="#EF8080"/>
<stop offset="1" stop-color="#F0145A"/>
</linearGradient>
<linearGradient id="paint2_linear_22728_11381" x1="46.3502" y1="29.1445" x2="46.3502" y2="46.9886" gradientUnits="userSpaceOnUse">
<stop stop-color="#EF8080"/>
<stop offset="1" stop-color="#F0145A"/>
</linearGradient>
<linearGradient id="paint3_linear_22728_11381" x1="46.3502" y1="19.9531" x2="46.3502" y2="27.1365" gradientUnits="userSpaceOnUse">
<stop stop-color="#EF8080"/>
<stop offset="1" stop-color="#F0145A"/>
</linearGradient>
</defs>
</svg>
