<svg width="93" height="92" viewBox="0 0 93 92" fill="none" xmlns="http://www.w3.org/2000/svg">
<rect x="0.333496" width="92" height="92" rx="24" fill="white"/>
<path d="M55.5652 51.6961C57.9174 51.6961 60.2431 52.2844 62.2912 53.3974C62.6631 53.5979 63.0044 53.8368 63.3529 54.0667C66.7142 47.4869 68.488 40.5278 68.488 33.7388C68.488 33.3573 68.488 32.9634 68.4758 32.5696C68.4512 32.0158 68.0573 31.5358 67.5034 31.4127C60.0696 29.7881 53.3373 25.7634 48.045 19.7819L47.2573 18.8834C47.0234 18.6127 46.6912 18.465 46.3342 18.465C45.9527 18.4158 45.6573 18.6004 45.4234 18.8589L44.2173 20.1881C39.1958 25.7142 32.8696 29.5296 25.9281 31.2281L25.1281 31.425C24.5865 31.5481 24.205 32.0281 24.1927 32.5819C23.7496 49.8865 33.965 62.3296 38.3712 66.8834C39.5641 68.1082 40.8941 69.3256 42.1588 70.3319C41.6844 68.9011 41.4113 67.3957 41.4113 65.8499C41.4113 58.0452 47.7605 51.6961 55.5652 51.6961Z" fill="url(#paint0_linear_22728_11400)"/>
<path d="M61.1156 55.5593C59.4172 54.6363 57.4972 54.1562 55.5649 54.1562C49.1156 54.1562 43.8726 59.3993 43.8726 65.8486C43.8726 68.027 44.4634 70.1562 45.5957 71.9778C47.7495 75.4609 51.4665 77.5409 55.5649 77.5409C62.0018 77.5409 67.2572 72.2978 67.2572 65.8486C67.2572 61.5409 64.9064 57.6024 61.1156 55.5593ZM61.5531 64.2918L52.4082 71.4084L49.2862 66.5249C48.9197 65.9522 49.0873 65.1914 49.66 64.8254C50.2334 64.4588 50.9948 64.6277 51.3596 65.1992L53.0272 67.8074L60.0411 62.3495C60.5765 61.9318 61.3505 62.0273 61.7682 62.5646C62.1859 63.1013 62.0891 63.8747 61.5531 64.2918Z" fill="url(#paint1_linear_22728_11400)"/>
<defs>
<linearGradient id="paint0_linear_22728_11400" x1="46.3334" y1="18.457" x2="46.3334" y2="70.3319" gradientUnits="userSpaceOnUse">
<stop stop-color="#EF8080"/>
<stop offset="1" stop-color="#F0145A"/>
</linearGradient>
<linearGradient id="paint1_linear_22728_11400" x1="55.5649" y1="54.1562" x2="55.5649" y2="77.5409" gradientUnits="userSpaceOnUse">
<stop stop-color="#EF8080"/>
<stop offset="1" stop-color="#F0145A"/>
</linearGradient>
</defs>
</svg>
